<svg width="32" height="32" viewBox="0 0 32 32" fill="none" xmlns="http://www.w3.org/2000/svg">
<g opacity="0.64">
<path d="M10.3512 15.7172H12.7382V25.6452C12.7382 25.8412 12.8954 26 13.0894 26H17.1367C17.3307 26 17.4879 25.8412 17.4879 25.6452V15.764H20.2319C20.4104 15.764 20.5605 15.6287 20.5808 15.4497L20.9976 11.7947C21.0091 11.6941 20.9775 11.5934 20.9109 11.518C20.8443 11.4425 20.7489 11.3992 20.6488 11.3992H17.488V9.10812C17.488 8.41746 17.8561 8.06723 18.5822 8.06723C18.6856 8.06723 20.6488 8.06723 20.6488 8.06723C20.8428 8.06723 21 7.90834 21 7.71239V4.35746C21 4.16145 20.8428 4.00263 20.6488 4.00263H17.8007C17.7806 4.00163 17.736 4 17.6703 4C17.1761 4 15.4584 4.09801 14.1015 5.3591C12.5981 6.7566 12.8071 8.42988 12.8571 8.71999V11.3992H10.3512C10.1572 11.3992 10 11.558 10 11.754V15.3623C10 15.5583 10.1572 15.7172 10.3512 15.7172Z" fill="white"/>
</g>
</svg>
