<svg viewBox="0 0 11 22" xmlns="http://www.w3.org/2000/svg">
<path d="M0.351225 11.7172H2.73822V21.6452C2.73822 21.8412 2.89542 22 3.08944 22H7.13667C7.33069 22 7.4879 21.8412 7.4879 21.6452V11.764H10.2319C10.4104 11.764 10.5605 11.6287 10.5808 11.4497L10.9976 7.79467C11.0091 7.69411 10.9775 7.59341 10.9109 7.51797C10.8443 7.44246 10.7489 7.39924 10.6488 7.39924H7.48804V5.10812C7.48804 4.41746 7.85612 4.06723 8.58217 4.06723C8.68564 4.06723 10.6488 4.06723 10.6488 4.06723C10.8428 4.06723 11 3.90834 11 3.71239V0.357465C11 0.161452 10.8428 0.00262581 10.6488 0.00262581H7.8007C7.78061 0.00163226 7.736 0 7.67025 0C7.17608 0 5.45838 0.0980064 4.10153 1.3591C2.59815 2.7566 2.80713 4.42988 2.85707 4.71999V7.39917H0.351225C0.157208 7.39917 0 7.55799 0 7.75401V11.3623C0 11.5583 0.157208 11.7172 0.351225 11.7172Z"/>
</svg>
