<svg viewBox="0 0 28 15">
<path fill-rule="evenodd" clip-rule="evenodd" d="M24.098 9.53768C25.0268 10.3961 26.0071 11.2038 26.8401 12.1488C27.2081 12.5687 27.5565 13.002 27.823 13.4894C28.2007 14.1822 27.8586 14.9445 27.2024 14.9859L23.1233 14.9842C22.0712 15.0668 21.2319 14.6658 20.5262 13.9849C19.9615 13.4403 19.4385 12.8608 18.8954 12.2978C18.6728 12.0678 18.4398 11.8513 18.1614 11.6801C17.6045 11.338 17.1212 11.4427 16.803 11.9925C16.4789 12.5517 16.4053 13.1709 16.3735 13.7941C16.3298 14.7034 16.0395 14.9424 15.0746 14.9841C13.0126 15.0761 11.0557 14.7808 9.23773 13.7961C7.63497 12.928 6.3921 11.7025 5.31032 10.3151C3.20406 7.61357 1.59109 4.645 0.141409 1.59327C-0.184902 0.905713 0.053737 0.536635 0.855117 0.523572C2.18584 0.4991 3.51639 0.500842 4.84868 0.521831C5.38952 0.52932 5.74757 0.82298 5.95641 1.30667C6.67637 2.9825 7.55733 4.5769 8.66312 6.05478C8.9576 6.44824 9.25788 6.84171 9.68548 7.11865C10.1585 7.42528 10.5187 7.32365 10.7412 6.82481C10.8824 6.50851 10.9443 6.16782 10.9761 5.82905C11.0815 4.66355 11.0954 3.50006 10.9105 2.33866C10.797 1.61382 10.3657 1.1446 9.60167 1.00743C9.21179 0.9375 9.26984 0.800163 9.45861 0.589498C9.78649 0.226167 10.0949 0 10.7096 0H15.3196C16.0454 0.135596 16.2065 0.444235 16.3059 1.13554L16.3099 5.98311C16.3019 6.25073 16.4511 7.04488 16.9603 7.22202C17.3678 7.34812 17.6364 7.03948 17.881 6.79485C18.9847 5.68588 19.7725 4.37529 20.4763 3.0182C20.7886 2.42148 21.0571 1.80176 21.3174 1.18257C21.5102 0.72309 21.8128 0.49701 22.3595 0.507025L26.7964 0.51077C26.928 0.51077 27.0611 0.512599 27.1885 0.533239C27.9362 0.653855 28.141 0.958315 27.9101 1.64944C27.5463 2.73377 26.8384 3.6374 26.1462 4.5452C25.4063 5.5144 24.6149 6.45042 23.8812 7.42537C23.207 8.31567 23.2605 8.76443 24.098 9.53768Z"/>
</svg>
