<svg width="12" height="12" viewBox="0 0 12 12" fill="none" xmlns="http://www.w3.org/2000/svg">
<path fill-rule="evenodd" clip-rule="evenodd" d="M11.5431 2.66759C12.1514 2.06049 12.1524 1.07518 11.5453 0.466837C10.9382 -0.141507 9.95292 -0.142515 9.34458 0.464585L6.00286 3.79946L2.66715 0.456918C2.06005 -0.151426 1.07474 -0.152434 0.466395 0.454666C-0.141948 1.06177 -0.142957 2.04708 0.464143 2.65542L3.79986 5.99797L0.456918 9.33407C-0.151426 9.94117 -0.152434 10.9265 0.454666 11.5348C1.06177 12.1432 2.04708 12.1442 2.65542 11.5371L5.99836 8.20098L9.33363 11.5431C9.94073 12.1514 10.926 12.1524 11.5344 11.5453C12.1427 10.9382 12.1437 9.95292 11.5366 9.34458L8.20137 6.00247L11.5431 2.66759Z" fill="#F97676"/>
</svg>
