<svg>
<path d="M46.762 18.128C46.894 18.14 47.068 18.152 47.284 18.164C47.5 18.164 47.794 18.164 48.166 18.164C49.69 18.164 50.824 17.78 51.568 17.012C52.324 16.232 52.702 15.146 52.702 13.754C52.702 12.338 52.336 11.252 51.604 10.496C50.872 9.74 49.738 9.362 48.202 9.362C47.53 9.362 47.05 9.38 46.762 9.416V18.128ZM55.078 13.754C55.078 14.834 54.91 15.776 54.574 16.58C54.238 17.372 53.758 18.038 53.134 18.578C52.522 19.106 51.778 19.502 50.902 19.766C50.038 20.018 49.078 20.144 48.022 20.144C47.518 20.144 46.948 20.12 46.312 20.072C45.676 20.036 45.07 19.952 44.494 19.82V7.706C45.07 7.574 45.682 7.49 46.33 7.454C46.978 7.418 47.554 7.4 48.058 7.4C49.102 7.4 50.056 7.526 50.92 7.778C51.784 8.018 52.522 8.402 53.134 8.93C53.758 9.446 54.238 10.106 54.574 10.91C54.91 11.702 55.078 12.65 55.078 13.754ZM58.2745 7.526H60.5425V20H58.2745V7.526ZM70.0824 9.236C68.7984 9.236 67.8144 9.638 67.1304 10.442C66.4584 11.234 66.1224 12.338 66.1224 13.754C66.1224 14.426 66.2004 15.044 66.3564 15.608C66.5244 16.16 66.7644 16.634 67.0764 17.03C67.4004 17.426 67.7964 17.738 68.2644 17.966C68.7444 18.182 69.3024 18.29 69.9384 18.29C70.3344 18.29 70.6764 18.278 70.9644 18.254C71.2524 18.218 71.4804 18.176 71.6484 18.128V13.646H73.9164V19.64C73.6044 19.76 73.0764 19.892 72.3324 20.036C71.5884 20.18 70.7304 20.252 69.7584 20.252C68.8584 20.252 68.0364 20.108 67.2924 19.82C66.5484 19.532 65.9124 19.112 65.3844 18.56C64.8684 18.008 64.4664 17.33 64.1784 16.526C63.8904 15.722 63.7464 14.798 63.7464 13.754C63.7464 12.71 63.9024 11.786 64.2144 10.982C64.5384 10.178 64.9764 9.5 65.5284 8.948C66.0804 8.384 66.7284 7.958 67.4724 7.67C68.2164 7.382 69.0084 7.238 69.8484 7.238C70.4244 7.238 70.9344 7.28 71.3784 7.364C71.8344 7.436 72.2244 7.52 72.5484 7.616C72.8724 7.712 73.1364 7.814 73.3404 7.922C73.5564 8.03 73.7064 8.108 73.7904 8.156L73.1064 10.01C72.7464 9.794 72.2964 9.614 71.7564 9.47C71.2284 9.314 70.6704 9.236 70.0824 9.236ZM77.2575 7.526H79.5255V20H77.2575V7.526ZM91.9274 7.526V9.488H88.0934V20H85.8074V9.488H81.9734V7.526H91.9274ZM101.638 20C101.47 19.508 101.296 19.022 101.116 18.542C100.936 18.062 100.762 17.57 100.594 17.066H95.3377C95.1697 17.57 94.9957 18.068 94.8157 18.56C94.6477 19.04 94.4797 19.52 94.3117 20H91.9537C92.4217 18.668 92.8657 17.438 93.2857 16.31C93.7057 15.182 94.1137 14.114 94.5097 13.106C94.9177 12.098 95.3197 11.138 95.7157 10.226C96.1117 9.314 96.5197 8.414 96.9397 7.526H99.0817C99.5017 8.414 99.9097 9.314 100.306 10.226C100.702 11.138 101.098 12.098 101.494 13.106C101.902 14.114 102.316 15.182 102.736 16.31C103.168 17.438 103.618 18.668 104.086 20H101.638ZM97.9657 9.938C97.6897 10.574 97.3717 11.348 97.0117 12.26C96.6637 13.172 96.2977 14.162 95.9137 15.23H100.018C99.6337 14.162 99.2617 13.166 98.9017 12.242C98.5417 11.318 98.2297 10.55 97.9657 9.938ZM114.266 18.038V20H106.382V7.526H108.65V18.038H114.266ZM125.167 7.4C126.979 7.4 128.365 7.73 129.325 8.39C130.297 9.05 130.783 10.082 130.783 11.486C130.783 12.218 130.651 12.848 130.387 13.376C130.135 13.892 129.763 14.318 129.271 14.654C128.779 14.978 128.179 15.218 127.471 15.374C126.763 15.53 125.953 15.608 125.041 15.608H123.907V20H121.639V7.706C122.167 7.586 122.749 7.508 123.385 7.472C124.033 7.424 124.627 7.4 125.167 7.4ZM125.329 9.362C124.753 9.362 124.279 9.38 123.907 9.416V13.664H125.005C126.097 13.664 126.937 13.514 127.525 13.214C128.113 12.902 128.407 12.32 128.407 11.468C128.407 11.06 128.329 10.718 128.173 10.442C128.017 10.166 127.801 9.95 127.525 9.794C127.249 9.638 126.919 9.53 126.535 9.47C126.163 9.398 125.761 9.362 125.329 9.362ZM141.458 18.038V20H133.574V7.526H135.842V18.038H141.458ZM152.646 20C152.478 19.508 152.304 19.022 152.124 18.542C151.944 18.062 151.77 17.57 151.602 17.066H146.346C146.178 17.57 146.004 18.068 145.824 18.56C145.656 19.04 145.488 19.52 145.32 20H142.962C143.43 18.668 143.874 17.438 144.294 16.31C144.714 15.182 145.122 14.114 145.518 13.106C145.926 12.098 146.328 11.138 146.724 10.226C147.12 9.314 147.528 8.414 147.948 7.526H150.09C150.51 8.414 150.918 9.314 151.314 10.226C151.71 11.138 152.106 12.098 152.502 13.106C152.91 14.114 153.324 15.182 153.744 16.31C154.176 17.438 154.626 18.668 155.094 20H152.646ZM148.974 9.938C148.698 10.574 148.38 11.348 148.02 12.26C147.672 13.172 147.306 14.162 146.922 15.23H151.026C150.642 14.162 150.27 13.166 149.91 12.242C149.55 11.318 149.238 10.55 148.974 9.938ZM165.797 20C165.389 19.316 164.933 18.584 164.429 17.804C163.925 17.012 163.403 16.22 162.863 15.428C162.323 14.624 161.771 13.85 161.207 13.106C160.655 12.35 160.127 11.672 159.623 11.072V20H157.391V7.526H159.245C159.725 8.03 160.241 8.63 160.793 9.326C161.345 10.01 161.897 10.724 162.449 11.468C163.013 12.212 163.553 12.962 164.069 13.718C164.597 14.462 165.065 15.158 165.473 15.806V7.526H167.723V20H165.797ZM171.435 20V7.526H179.445V9.452H173.703V12.53H178.815V14.42H173.703V18.074H179.877V20H171.435ZM191.396 7.526V9.488H187.562V20H185.276V9.488H181.442V7.526H191.396Z"/>
<g clip-path="url(#clip0)">
<path d="M5.47173 14.9688C6.17259 14.9688 6.74074 14.4007 6.74074 13.6998C6.74074 12.999 6.17259 12.4308 5.47173 12.4308C4.77088 12.4308 4.20273 12.999 4.20273 13.6998C4.20273 14.4007 4.77088 14.9688 5.47173 14.9688Z"/>
<path d="M22.1326 14.9688C22.8334 14.9688 23.4016 14.4007 23.4016 13.6998C23.4016 12.999 22.8334 12.4308 22.1326 12.4308C21.4317 12.4308 20.8635 12.999 20.8635 13.6998C20.8635 14.4007 21.4317 14.9688 22.1326 14.9688Z"/>
<path d="M13.9995 1.07491e-05C11.813 -0.0122453 9.65419 0.488796 7.69663 1.46284C5.73907 2.43688 4.03742 3.85673 2.72854 5.6082H3.27435H6.6993C8.1343 5.58449 9.54094 5.20469 10.7929 4.50293C11.189 4.29516 11.6283 4.183 12.0755 4.17545C12.8407 4.17167 13.5767 4.46835 14.1253 5.00168C14.674 5.535 14.9914 6.26237 15.0092 7.0273C15.0072 7.5288 14.8749 8.02116 14.6252 8.45608C14.3755 8.89099 14.017 9.25352 13.5849 9.5081C13.1528 9.76267 12.662 9.90054 12.1605 9.90818C11.6591 9.91581 11.1643 9.79296 10.7246 9.55167C9.19377 8.69001 7.47322 8.22119 5.71684 8.18715H4.35232C3.20952 8.19613 2.07747 8.40868 1.00924 8.81483C-0.318255 12.1442 -0.318255 15.8559 1.00924 19.1852C1.62772 19.3527 2.26519 19.4398 2.90593 19.4445H6.26265C7.69765 19.4207 9.10429 19.041 10.3562 18.3392C10.7523 18.1314 11.1916 18.0193 11.6389 18.0117C12.4041 18.0043 13.1416 18.2975 13.6928 18.8283C14.244 19.359 14.5648 20.085 14.5862 20.8499C14.5923 21.3514 14.4678 21.8458 14.2251 22.2847C13.9824 22.7235 13.6297 23.0917 13.2018 23.3532C12.7738 23.6146 12.2852 23.7603 11.784 23.776C11.2827 23.7917 10.786 23.6767 10.3426 23.4425C8.81171 22.5808 7.09115 22.112 5.33478 22.078H3.97025C3.55461 22.0803 3.13965 22.1122 2.72854 22.1735C4.13111 24.1239 6.01196 25.6805 8.19016 26.6937C10.3684 27.7068 12.7706 28.1425 15.1659 27.9586C17.5612 27.7748 19.8688 26.9777 21.8669 25.6441C23.865 24.3104 25.4863 22.485 26.5749 20.3435C27.6634 18.202 28.1826 15.8164 28.0825 13.4161C27.9824 11.0159 27.2663 8.68183 26.0031 6.63842C24.74 4.595 22.9723 2.911 20.87 1.74839C18.7678 0.585777 16.4017 -0.0163197 13.9995 1.07491e-05ZM22.1866 17.1793C21.6242 17.1788 21.0708 17.0381 20.5765 16.77C18.7773 15.7448 16.7519 15.1822 14.6818 15.1326H13.0716C11.0015 15.1822 8.97603 15.7448 7.17688 16.77C6.65443 17.0513 6.06741 17.1909 5.47426 17.1748C4.88111 17.1588 4.3025 16.9877 3.79601 16.6785C3.28953 16.3694 2.87283 15.933 2.5874 15.4128C2.30196 14.8926 2.15774 14.3067 2.16908 13.7135C2.1976 12.8134 2.57805 11.9605 3.22868 11.3379C3.8793 10.7153 4.74819 10.3729 5.64862 10.384C6.17291 10.3973 6.68687 10.5328 7.14959 10.7797C8.60062 11.6193 10.2363 12.0879 11.9118 12.1443H15.8689C17.5443 12.0879 19.18 11.6193 20.6311 10.7797C21.0938 10.5328 21.6077 10.3973 22.132 10.384C23.0348 10.3729 23.9056 10.7173 24.5567 11.3428C25.2077 11.9683 25.5866 12.8247 25.6116 13.7271C25.6188 14.1779 25.5363 14.6256 25.3688 15.0441C25.2013 15.4626 24.9522 15.8437 24.6359 16.165C24.3197 16.4863 23.9427 16.7414 23.5269 16.9156C23.1111 17.0897 22.6647 17.1794 22.2139 17.1793H22.1866Z"/>
<path d="M11.5848 21.9279C12.1801 21.9279 12.6628 21.4452 12.6628 20.8499C12.6628 20.2546 12.1801 19.7719 11.5848 19.7719C10.9895 19.7719 10.5068 20.2546 10.5068 20.8499C10.5068 21.4452 10.9895 21.9279 11.5848 21.9279Z"/>
<path d="M12.0078 8.07797C12.6031 8.07797 13.0858 7.59535 13.0858 7C13.0858 6.40465 12.6031 5.92203 12.0078 5.92203C11.4124 5.92203 10.9298 6.40465 10.9298 7C10.9298 7.59535 11.4124 8.07797 12.0078 8.07797Z"/>
</g>
<defs>
<clipPath id="clip0">
<rect width="28" height="28"/>
</clipPath>
</defs>
</svg>
