<svg width="32" height="32" viewBox="0 0 32 32" fill="none" xmlns="http://www.w3.org/2000/svg">
<g opacity="0.64">
<path fill-rule="evenodd" clip-rule="evenodd" d="M26.098 18.5377C27.0268 19.3961 28.0071 20.2038 28.8401 21.1488C29.2081 21.5687 29.5565 22.002 29.823 22.4894C30.2007 23.1822 29.8586 23.9445 29.2024 23.9859L25.1233 23.9842C24.0712 24.0668 23.2319 23.6658 22.5262 22.9849C21.9615 22.4403 21.4385 21.8608 20.8954 21.2978C20.6728 21.0678 20.4398 20.8513 20.1614 20.6801C19.6045 20.338 19.1212 20.4427 18.803 20.9925C18.4789 21.5517 18.4053 22.1709 18.3735 22.7941C18.3298 23.7034 18.0395 23.9424 17.0746 23.9841C15.0126 24.0761 13.0557 23.7808 11.2377 22.7961C9.63497 21.928 8.3921 20.7025 7.31032 19.3151C5.20406 16.6136 3.59109 13.645 2.14141 10.5933C1.8151 9.90571 2.05374 9.53664 2.85512 9.52357C4.18584 9.4991 5.51639 9.50084 6.84868 9.52183C7.38952 9.52932 7.74757 9.82298 7.95641 10.3067C8.67637 11.9825 9.55733 13.5769 10.6631 15.0548C10.9576 15.4482 11.2579 15.8417 11.6855 16.1186C12.1585 16.4253 12.5187 16.3237 12.7412 15.8248C12.8824 15.5085 12.9443 15.1678 12.9761 14.829C13.0815 13.6636 13.0954 12.5001 12.9105 11.3387C12.797 10.6138 12.3657 10.1446 11.6017 10.0074C11.2118 9.9375 11.2698 9.80016 11.4586 9.5895C11.7865 9.22617 12.0949 9 12.7096 9H17.3196C18.0454 9.1356 18.2065 9.44424 18.3059 10.1355L18.3099 14.9831C18.3019 15.2507 18.4511 16.0449 18.9603 16.222C19.3678 16.3481 19.6364 16.0395 19.881 15.7949C20.9847 14.6859 21.7725 13.3753 22.4763 12.0182C22.7886 11.4215 23.0571 10.8018 23.3174 10.1826C23.5102 9.72309 23.8128 9.49701 24.3595 9.50703L28.7964 9.51077C28.928 9.51077 29.0611 9.5126 29.1885 9.53324C29.9362 9.65386 30.141 9.95831 29.9101 10.6494C29.5463 11.7338 28.8384 12.6374 28.1462 13.5452C27.4063 14.5144 26.6149 15.4504 25.8812 16.4254C25.207 17.3157 25.2605 17.7644 26.098 18.5377Z" fill="white"/>
</g>
</svg>
